<?xml version="1.0" encoding="UTF-8" standalone="no"?>
<!DOCTYPE svg PUBLIC "-//W3C//DTD SVG 1.1//EN" "http://www.w3.org/Graphics/SVG/1.1/DTD/svg11.dtd">
<svg width="100%" height="100%" viewBox="0 0 291 79" version="1.1" xmlns="http://www.w3.org/2000/svg" xmlns:xlink="http://www.w3.org/1999/xlink" xml:space="preserve" xmlns:serif="http://www.serif.com/" style="fill-rule:evenodd;clip-rule:evenodd;stroke-linejoin:round;stroke-miterlimit:2;">
    <g transform="matrix(1,0,0,1,-75.586,-160.168453)">
        <path id="path0" d="M187.305,160.39C171.497,161.363 152.051,163.975 137.891,167.028C135.42,167.561 130.938,168.507 127.93,169.13C124.922,169.753 120.209,170.801 117.456,171.46L112.45,172.656L96.004,172.656C86.958,172.656 79.631,172.727 79.72,172.813C79.81,172.9 84.102,173.256 89.258,173.604C98.57,174.234 98.644,174.246 100.304,175.4C102.305,176.791 108.836,177.081 112.891,175.959C153.904,164.613 204.687,160.099 233.369,165.249C238.515,166.173 238.681,166.17 235.938,165.195C226.136,161.714 202.978,159.426 187.305,160.39M187.695,165.256C165.421,166.778 133.976,172.468 106.576,179.933L101.628,181.281L98.997,179.671C97.55,178.786 95.91,177.741 95.351,177.35C94.547,176.786 93.282,176.592 89.258,176.413C86.465,176.29 82.246,176.069 79.883,175.923L75.586,175.658L87.272,185.62L89.632,185.4C98.141,184.603 130.975,184.802 145.898,185.741L149.023,185.938L145.123,184.001C140.329,181.621 140.324,181.609 143.83,180.16C184.218,163.47 234.205,166.894 271.813,188.925L273.509,189.919L270.63,191.17C260.173,195.716 255.224,205.413 259.204,213.558C262.09,219.465 265.555,220.313 286.811,220.313C300.08,220.313 302.288,220.395 303.038,220.921C304.641,222.044 303.965,225.048 301.835,226.267C301.184,226.639 295.506,226.805 278.327,226.953L255.678,227.148L254.666,231.836C254.109,234.414 253.532,237.007 253.382,237.598L253.11,238.672L277.079,238.672C306.435,238.672 307.11,238.563 313.396,232.818C319.633,227.117 320.027,215.854 314.143,211.436C310.788,208.916 310.208,208.845 291.319,208.61C271.773,208.368 272.067,208.422 272.877,205.228C273.601,202.371 274.315,202.164 283.914,202.03C291.992,201.918 292.478,201.868 294.437,200.943C298.535,199.01 315.022,198.929 317.739,200.83C327.889,207.929 329.495,225.135 321.038,236.169L319.119,238.672L363.707,238.672L364.666,237.713C366.048,236.331 365.896,235.624 364.16,235.356C355.916,234.082 348.965,232.174 341.998,229.274C337.64,227.46 338.463,227.525 346.904,229.662C355.778,231.908 364.418,233.759 364.702,233.475C364.812,233.365 363.394,232.454 361.552,231.45C357.571,229.28 357.683,230.219 360.547,223.047C363.782,214.943 363.851,215.139 355.895,209.79C333.433,194.686 313.99,188.281 290.604,188.281L285.835,188.281L282.412,186.322C272.393,180.589 255.063,173.27 243.66,169.955C229.45,165.825 206.975,163.937 187.695,165.256M88.014,193.262L87.268,196.289L86.344,199.694L86.239,200.726L86.133,201.758L149.805,202.148L152.054,203.253C160.037,207.173 158.206,220.575 149.087,224.965C145.358,226.76 143.529,226.953 130.245,226.953L117.685,226.953L118.792,221.582C119.401,218.628 120.42,213.753 121.057,210.75C121.694,207.746 122.139,205.212 122.047,205.12C121.954,205.027 106.705,209.106 106.705,209.106L106.454,210.51C106.315,211.282 106.037,212.551 105.834,213.329L105.466,214.743L104.753,218.475L104.501,219.882C104.363,220.656 104.077,221.948 103.867,222.754L103.486,224.219C103.486,224.219 101.23,234.838 101.08,234.988C101.012,235.055 100.988,238.46 100.988,238.46C100.988,238.46 98.275,238.477 103.125,238.477L145.898,238.477L149.205,237.595C175.495,230.588 181.276,195.439 156.899,190.815C154.343,190.33 148.461,190.234 121.298,190.234L88.759,190.234L88.014,193.262M178.714,190.716C178.619,190.988 177.559,196.309 176.358,202.539C175.157,208.77 173.041,219.316 171.656,225.977C170.27,232.637 169.137,238.222 169.139,238.388C169.14,238.553 172.434,238.641 176.458,238.583L183.776,238.477L186.782,223.633C188.436,215.469 189.857,208.525 189.94,208.203C190.096,207.599 191.619,210.647 199.699,227.734C202.289,233.213 204.581,237.915 204.791,238.184C205.058,238.525 206.554,238.672 209.752,238.672L214.331,238.672L216.049,236.621C216.994,235.493 221.46,230.349 225.973,225.189C230.487,220.03 235.567,214.181 237.264,212.192C238.96,210.204 240.401,208.63 240.466,208.695C240.625,208.854 237.513,224.428 235.77,232.194C235.003,235.614 234.375,238.47 234.375,238.542C234.375,239.146 249.189,238.6 249.38,237.988C249.824,236.568 258.593,191.953 258.593,191.113L258.594,190.234L241.182,190.234L234.883,197.363C231.418,201.284 225.262,208.271 221.202,212.891C217.143,217.51 213.577,221.289 213.279,221.289C212.783,221.289 211.261,218.228 200.75,196.094L198.06,190.43L188.474,190.325C181.01,190.244 178.849,190.33 178.714,190.716M336.328,203.987C344.976,206.984 354.448,210.883 353.125,210.9C351.226,210.925 337.531,209.396 336.719,209.068C335.852,208.718 331.221,204.18 329.682,202.173C329.146,201.475 329.162,201.44 329.883,201.72C330.313,201.887 333.213,202.907 336.328,203.987" style="fill:rgb(254,254,255);"/>
    </g>
</svg>
